<svg width="337" height="134" viewBox="0 0 337 134" fill="none" xmlns="http://www.w3.org/2000/svg">
    <mask id="path-1-outside-1_64_5" maskUnits="userSpaceOnUse" x="0" y="0" width="337" height="134" fill="black">
    <rect fill="white" width="337" height="134"/>
        <path d="M19.1438 133C16.4428 133 13.5656 132.648 10.5123 131.943C7.45896 131.355 4.99281 130.591 3.11384 129.652C2.05692 129.064 1.52846 128.065 1.52846 126.656L1 106.917C1 104.92 1.76333 103.921 3.29 103.921C4.58179 103.921 5.46256 104.861 5.9323 106.741C7.92871 115.083 10.3361 120.781 13.1546 123.836C16.0905 126.891 19.6136 128.418 23.7238 128.418C27.1294 128.418 29.9479 127.125 32.1792 124.541C34.4105 121.838 35.5261 118.138 35.5261 113.438C35.5261 108.738 34.2343 104.567 31.6507 100.925C29.0671 97.283 24.722 93.2884 18.6154 88.9413C12.5087 84.8291 8.04614 80.7169 5.22769 76.6048C2.40923 72.3752 1 67.7931 1 62.8585C1 56.1615 3.34871 50.757 8.04614 46.6449C12.7436 42.5327 18.9677 40.4766 26.7184 40.4766C29.0671 40.4766 31.3571 40.7704 33.5884 41.3578C35.8197 41.8278 37.8161 42.6502 39.5776 43.8251C40.6346 44.53 41.163 45.47 41.163 46.6449L41.5153 66.0307C41.5153 67.7931 40.8107 68.6742 39.4015 68.6742C38.5794 68.6742 37.9922 68.4392 37.6399 67.9693C37.2876 67.3818 36.994 66.6769 36.7592 65.8545C34.4105 58.2176 32.0617 52.9306 29.713 49.9933C27.3643 46.9386 24.4871 45.4112 21.0815 45.4112C18.0282 45.4112 15.5033 46.4686 13.5069 48.5834C11.5105 50.6983 10.5123 53.3418 10.5123 56.514C10.5123 60.6262 11.7454 64.2096 14.2115 67.2643C16.6777 70.3191 21.1402 74.0788 27.5992 78.5434C33.471 82.773 37.8748 87.3551 40.8107 92.2897C43.864 97.1068 45.3907 102.394 45.3907 108.151C45.3907 115.67 42.9833 121.721 38.1684 126.303C33.3535 130.768 27.012 133 19.1438 133Z"/>
        <path d="M44.971 131.414C43.2094 131.414 42.3287 130.768 42.3287 129.475C42.3287 128.418 43.092 127.713 44.6186 127.36L46.7325 127.008C49.1986 126.538 50.784 125.833 51.4886 124.893C52.3107 123.836 52.7217 122.073 52.7217 119.606V60.3912C52.7217 58.2764 52.3694 56.8665 51.6648 56.1615C51.0776 55.3391 49.962 54.8104 48.3179 54.5754L44.6186 54.0467C43.092 53.9292 42.3287 53.283 42.3287 52.1081C42.3287 51.1682 43.2681 50.522 45.1471 50.1696C48.7876 49.5821 51.5474 48.6422 53.4263 47.3498C55.4227 46.0574 57.4779 44.4713 59.5917 42.5915C60.6486 41.534 61.5294 41.0053 62.234 41.0053C63.2909 41.0053 63.8194 41.7103 63.8194 43.1202V51.0507C63.8194 51.8732 64.1717 52.5194 64.8763 52.9893C65.5809 53.3418 66.3442 53.1068 67.1663 52.2844C71.9812 47.7023 76.1501 44.5888 79.6732 42.9439C83.3137 41.2991 86.9542 40.4766 90.5947 40.4766C94.0004 40.4766 96.995 41.4166 99.5785 43.2964C102.28 45.0587 104.276 47.761 105.568 51.4032C105.92 52.3431 106.507 52.9306 107.329 53.1655C108.269 53.283 109.15 52.9306 109.972 52.1081C114.786 47.6435 118.955 44.5888 122.479 42.9439C126.002 41.2991 129.583 40.4766 133.224 40.4766C138.156 40.4766 142.149 42.3565 145.202 46.1161C148.373 49.7583 149.958 55.1629 149.958 62.3298V119.606C149.958 122.073 150.311 123.836 151.015 124.893C151.837 125.833 153.482 126.479 155.948 126.832L159.823 127.36C161.115 127.595 161.761 128.3 161.761 129.475C161.761 130.768 161.056 131.414 159.647 131.414H129.525C127.881 131.414 127.059 130.768 127.059 129.475C127.059 128.3 127.704 127.595 128.996 127.36L131.462 127.008C134.163 126.656 135.925 125.951 136.747 124.893C137.569 123.836 137.98 122.073 137.98 119.606V64.2684C137.98 58.5113 136.923 54.4579 134.809 52.1081C132.813 49.7583 130.053 48.5834 126.53 48.5834C123.007 48.5834 119.777 49.6996 116.842 51.9319C114.023 54.0467 111.733 56.9252 109.972 60.5674C108.21 64.0921 107.329 68.028 107.329 72.3752V119.606C107.329 122.073 107.74 123.836 108.562 124.893C109.384 125.833 111.087 126.479 113.671 126.832L117.546 127.36C118.838 127.595 119.484 128.3 119.484 129.475C119.484 130.768 118.779 131.414 117.37 131.414H87.424C85.7799 131.414 84.9578 130.768 84.9578 129.475C84.9578 128.3 85.6037 127.595 86.8955 127.36L89.3616 127.008C91.8278 126.656 93.4132 125.951 94.1178 124.893C94.9398 123.836 95.3509 122.073 95.3509 119.606V64.2684C95.3509 58.5113 94.2939 54.4579 92.1801 52.1081C90.1837 49.7583 87.424 48.5834 83.9009 48.5834C80.3778 48.5834 77.1483 49.6996 74.2124 51.9319C71.394 54.0467 69.104 56.9252 67.3425 60.5674C65.5809 64.0921 64.7001 68.028 64.7001 72.3752V119.606C64.7001 122.073 65.0525 123.836 65.7571 124.893C66.5791 125.951 68.2232 126.597 70.6894 126.832L75.4455 127.36C76.7373 127.595 77.3832 128.242 77.3832 129.299C77.3832 130.709 76.5024 131.414 74.7409 131.414H44.971Z"/>
        <path d="M174.286 133C169.353 133 165.302 131.473 162.131 128.418C158.96 125.246 157.375 121.075 157.375 115.905C157.375 110.853 158.96 106.095 162.131 101.63C165.302 97.0481 169.647 92.9359 175.166 89.2937C180.686 85.6515 186.969 82.7143 194.015 80.482C195.541 80.012 196.305 79.0133 196.305 77.486V61.4486C196.305 55.8091 195.424 51.8144 193.662 49.4646C191.901 46.9973 189.493 45.7637 186.44 45.7637C183.504 45.7637 180.803 47.1148 178.337 49.8171C175.988 52.4019 174.286 56.8077 173.229 63.0347C172.641 66.7944 171.35 69.5554 169.353 71.3178C167.474 72.9626 165.537 73.785 163.54 73.785C160.252 73.785 158.608 72.1402 158.608 68.8505C158.608 65.4433 159.547 62.0948 161.426 58.8051C163.423 55.3979 166.006 52.3431 169.177 49.6409C172.348 46.8211 175.812 44.5888 179.57 42.9439C183.328 41.2991 187.086 40.4766 190.844 40.4766C202.47 40.4766 208.283 47.2323 208.283 60.7437V114.672C208.283 119.606 209.516 122.073 211.982 122.073C213.509 122.073 214.918 121.075 216.21 119.077C217.502 116.963 218.148 113.438 218.148 108.503C218.148 106.623 218.911 105.684 220.438 105.684C221.847 105.684 222.552 106.682 222.552 108.68C222.552 117.256 221.025 123.483 217.972 127.36C215.036 131.12 211.689 133 207.931 133C205.112 133 202.881 131.884 201.237 129.652C199.593 127.302 198.477 124.541 197.89 121.368C197.773 120.194 197.244 119.606 196.305 119.606C195.483 119.489 194.661 120.017 193.839 121.192C191.02 125.069 188.143 128.007 185.207 130.004C182.271 132.001 178.631 133 174.286 133ZM179.042 124.893C182.095 124.893 184.913 123.836 187.497 121.721C190.081 119.489 192.194 116.551 193.839 112.909C195.483 109.267 196.305 105.155 196.305 100.573V87.7076C196.305 85.4753 195.072 84.8291 192.606 85.769C185.442 88.3538 179.864 91.9372 175.871 96.5194C171.996 100.984 170.058 106.389 170.058 112.733C170.058 120.84 173.052 124.893 179.042 124.893Z"/>
        <path d="M236.012 133C233.311 133 230.434 132.648 227.381 131.943C224.327 131.355 219.356 128.912 217.477 127.972C215.572 127.972 218.324 127.316 218.324 125.906L217.868 106.917C217.868 104.92 218.632 103.921 220.158 103.921C221.45 103.921 222.331 104.861 222.801 106.741C224.797 115.083 227.205 120.781 230.023 123.836C232.959 126.891 236.482 128.418 240.592 128.418C243.998 128.418 246.816 127.125 249.048 124.541C251.279 121.838 252.395 118.138 252.395 113.438C252.395 108.738 251.103 104.567 248.519 100.925C245.936 97.283 241.59 93.2884 235.484 88.9413C229.377 84.8291 224.915 80.7169 222.096 76.6048C219.278 72.3752 217.868 67.7931 217.868 62.8585C217.868 56.1615 220.217 50.757 224.915 46.6449C229.612 42.5327 235.836 40.4766 243.587 40.4766C245.936 40.4766 248.226 40.7704 250.457 41.3578C252.688 41.8278 254.685 42.6502 256.446 43.8251C257.503 44.53 258.031 45.47 258.031 46.6449L258.384 66.0307C258.384 67.7931 257.679 68.6742 256.27 68.6742C255.448 68.6742 254.861 68.4392 254.508 67.9693C254.156 67.3818 253.862 66.6769 253.628 65.8545C251.279 58.2176 248.93 52.9306 246.581 49.9933C244.233 46.9386 241.356 45.4112 237.95 45.4112C234.897 45.4112 232.372 46.4686 230.375 48.5834C228.379 50.6983 227.381 53.3418 227.381 56.514C227.381 60.6262 228.614 64.2096 231.08 67.2643C233.546 70.3191 238.009 74.0788 244.468 78.5434C250.339 82.773 254.743 87.3551 257.679 92.2897C260.732 97.1068 262.259 102.394 262.259 108.151C262.259 115.67 259.852 121.721 255.037 126.303C250.222 130.768 243.88 133 236.012 133Z"/>
        <path d="M261.311 131.414C259.902 131.414 259.197 130.768 259.197 129.475C259.197 128.3 259.843 127.595 261.135 127.36L263.601 127.008C266.067 126.656 267.652 125.951 268.357 124.893C269.179 123.836 269.59 122.073 269.59 119.606V18.6235C269.59 16.5087 269.238 15.0988 268.533 14.3939C267.946 13.5714 266.83 13.0427 265.186 12.8077L261.487 12.279C260.195 12.0441 259.549 11.3391 259.549 10.1642C259.549 8.98932 260.195 8.28438 261.487 8.04939C264.775 7.34445 267.535 6.52202 269.766 5.5821C271.998 4.64218 273.877 3.70226 275.403 2.76235C277.282 1.58745 278.691 1 279.631 1C280.923 1 281.569 1.93992 281.569 3.81975V77.6622C281.569 78.8371 282.038 79.6008 282.978 79.9533C284.035 80.1882 285.033 79.777 285.972 78.7196L306.582 56.514C309.049 53.8117 310.047 51.5794 309.577 49.8171C309.225 47.9372 307.874 46.7623 305.525 46.2924L301.474 45.5874C299.947 45.235 299.184 44.4713 299.184 43.2964C299.184 42.1215 300.006 41.534 301.65 41.534H331.948C333.593 41.534 334.415 42.1802 334.415 43.4726C334.415 44.765 333.651 45.47 332.125 45.5874L330.539 45.7637C327.838 45.9987 325.137 47.0561 322.436 48.9359C319.735 50.6983 316.506 53.518 312.748 57.3952L301.826 69.0267C299.36 71.729 298.773 74.3725 300.065 76.9573L322.26 119.606C323.552 121.956 324.961 123.66 326.488 124.717C328.014 125.774 329.893 126.538 332.125 127.008L333.886 127.36C335.295 127.713 336 128.418 336 129.475C336 130.768 335.178 131.414 333.534 131.414H302.883C301.239 131.414 300.417 130.768 300.417 129.475C300.417 128.3 301.18 127.595 302.707 127.36L305.702 127.008C310.164 126.421 311.104 123.542 308.52 118.372L291.785 85.769C291.198 84.5941 290.318 83.9479 289.143 83.8304C288.086 83.7129 287.088 84.1242 286.149 85.0641L284.211 87.0027C283.154 88.0601 282.449 89.1175 282.097 90.1749C281.745 91.2323 281.569 92.4072 281.569 93.6996V119.606C281.569 122.073 281.921 123.836 282.625 124.893C283.448 125.951 285.092 126.597 287.558 126.832L292.314 127.36C293.606 127.595 294.252 128.3 294.252 129.475C294.252 130.768 293.547 131.414 292.138 131.414H261.311Z"/>
    </mask>
    <path d="M19.1438 133C16.4428 133 13.5656 132.648 10.5123 131.943C7.45896 131.355 4.99281 130.591 3.11384 129.652C2.05692 129.064 1.52846 128.065 1.52846 126.656L1 106.917C1 104.92 1.76333 103.921 3.29 103.921C4.58179 103.921 5.46256 104.861 5.9323 106.741C7.92871 115.083 10.3361 120.781 13.1546 123.836C16.0905 126.891 19.6136 128.418 23.7238 128.418C27.1294 128.418 29.9479 127.125 32.1792 124.541C34.4105 121.838 35.5261 118.138 35.5261 113.438C35.5261 108.738 34.2343 104.567 31.6507 100.925C29.0671 97.283 24.722 93.2884 18.6154 88.9413C12.5087 84.8291 8.04614 80.7169 5.22769 76.6048C2.40923 72.3752 1 67.7931 1 62.8585C1 56.1615 3.34871 50.757 8.04614 46.6449C12.7436 42.5327 18.9677 40.4766 26.7184 40.4766C29.0671 40.4766 31.3571 40.7704 33.5884 41.3578C35.8197 41.8278 37.8161 42.6502 39.5776 43.8251C40.6346 44.53 41.163 45.47 41.163 46.6449L41.5153 66.0307C41.5153 67.7931 40.8107 68.6742 39.4015 68.6742C38.5794 68.6742 37.9922 68.4392 37.6399 67.9693C37.2876 67.3818 36.994 66.6769 36.7592 65.8545C34.4105 58.2176 32.0617 52.9306 29.713 49.9933C27.3643 46.9386 24.4871 45.4112 21.0815 45.4112C18.0282 45.4112 15.5033 46.4686 13.5069 48.5834C11.5105 50.6983 10.5123 53.3418 10.5123 56.514C10.5123 60.6262 11.7454 64.2096 14.2115 67.2643C16.6777 70.3191 21.1402 74.0788 27.5992 78.5434C33.471 82.773 37.8748 87.3551 40.8107 92.2897C43.864 97.1068 45.3907 102.394 45.3907 108.151C45.3907 115.67 42.9833 121.721 38.1684 126.303C33.3535 130.768 27.012 133 19.1438 133Z" fill="black"/>
    <path d="M44.971 131.414C43.2094 131.414 42.3287 130.768 42.3287 129.475C42.3287 128.418 43.092 127.713 44.6186 127.36L46.7325 127.008C49.1986 126.538 50.784 125.833 51.4886 124.893C52.3107 123.836 52.7217 122.073 52.7217 119.606V60.3912C52.7217 58.2764 52.3694 56.8665 51.6648 56.1615C51.0776 55.3391 49.962 54.8104 48.3179 54.5754L44.6186 54.0467C43.092 53.9292 42.3287 53.283 42.3287 52.1081C42.3287 51.1682 43.2681 50.522 45.1471 50.1696C48.7876 49.5821 51.5474 48.6422 53.4263 47.3498C55.4227 46.0574 57.4779 44.4713 59.5917 42.5915C60.6486 41.534 61.5294 41.0053 62.234 41.0053C63.2909 41.0053 63.8194 41.7103 63.8194 43.1202V51.0507C63.8194 51.8732 64.1717 52.5194 64.8763 52.9893C65.5809 53.3418 66.3442 53.1068 67.1663 52.2844C71.9812 47.7023 76.1501 44.5888 79.6732 42.9439C83.3137 41.2991 86.9542 40.4766 90.5947 40.4766C94.0004 40.4766 96.995 41.4166 99.5785 43.2964C102.28 45.0587 104.276 47.761 105.568 51.4032C105.92 52.3431 106.507 52.9306 107.329 53.1655C108.269 53.283 109.15 52.9306 109.972 52.1081C114.786 47.6435 118.955 44.5888 122.479 42.9439C126.002 41.2991 129.583 40.4766 133.224 40.4766C138.156 40.4766 142.149 42.3565 145.202 46.1161C148.373 49.7583 149.958 55.1629 149.958 62.3298V119.606C149.958 122.073 150.311 123.836 151.015 124.893C151.837 125.833 153.482 126.479 155.948 126.832L159.823 127.36C161.115 127.595 161.761 128.3 161.761 129.475C161.761 130.768 161.056 131.414 159.647 131.414H129.525C127.881 131.414 127.059 130.768 127.059 129.475C127.059 128.3 127.704 127.595 128.996 127.36L131.462 127.008C134.163 126.656 135.925 125.951 136.747 124.893C137.569 123.836 137.98 122.073 137.98 119.606V64.2684C137.98 58.5113 136.923 54.4579 134.809 52.1081C132.813 49.7583 130.053 48.5834 126.53 48.5834C123.007 48.5834 119.777 49.6996 116.842 51.9319C114.023 54.0467 111.733 56.9252 109.972 60.5674C108.21 64.0921 107.329 68.028 107.329 72.3752V119.606C107.329 122.073 107.74 123.836 108.562 124.893C109.384 125.833 111.087 126.479 113.671 126.832L117.546 127.36C118.838 127.595 119.484 128.3 119.484 129.475C119.484 130.768 118.779 131.414 117.37 131.414H87.424C85.7799 131.414 84.9578 130.768 84.9578 129.475C84.9578 128.3 85.6037 127.595 86.8955 127.36L89.3616 127.008C91.8278 126.656 93.4132 125.951 94.1178 124.893C94.9398 123.836 95.3509 122.073 95.3509 119.606V64.2684C95.3509 58.5113 94.2939 54.4579 92.1801 52.1081C90.1837 49.7583 87.424 48.5834 83.9009 48.5834C80.3778 48.5834 77.1483 49.6996 74.2124 51.9319C71.394 54.0467 69.104 56.9252 67.3425 60.5674C65.5809 64.0921 64.7001 68.028 64.7001 72.3752V119.606C64.7001 122.073 65.0525 123.836 65.7571 124.893C66.5791 125.951 68.2232 126.597 70.6894 126.832L75.4455 127.36C76.7373 127.595 77.3832 128.242 77.3832 129.299C77.3832 130.709 76.5024 131.414 74.7409 131.414H44.971Z" fill="black"/>
    <path d="M174.286 133C169.353 133 165.302 131.473 162.131 128.418C158.96 125.246 157.375 121.075 157.375 115.905C157.375 110.853 158.96 106.095 162.131 101.63C165.302 97.0481 169.647 92.9359 175.166 89.2937C180.686 85.6515 186.969 82.7143 194.015 80.482C195.541 80.012 196.305 79.0133 196.305 77.486V61.4486C196.305 55.8091 195.424 51.8144 193.662 49.4646C191.901 46.9973 189.493 45.7637 186.44 45.7637C183.504 45.7637 180.803 47.1148 178.337 49.8171C175.988 52.4019 174.286 56.8077 173.229 63.0347C172.641 66.7944 171.35 69.5554 169.353 71.3178C167.474 72.9626 165.537 73.785 163.54 73.785C160.252 73.785 158.608 72.1402 158.608 68.8505C158.608 65.4433 159.547 62.0948 161.426 58.8051C163.423 55.3979 166.006 52.3431 169.177 49.6409C172.348 46.8211 175.812 44.5888 179.57 42.9439C183.328 41.2991 187.086 40.4766 190.844 40.4766C202.47 40.4766 208.283 47.2323 208.283 60.7437V114.672C208.283 119.606 209.516 122.073 211.982 122.073C213.509 122.073 214.918 121.075 216.21 119.077C217.502 116.963 218.148 113.438 218.148 108.503C218.148 106.623 218.911 105.684 220.438 105.684C221.847 105.684 222.552 106.682 222.552 108.68C222.552 117.256 221.025 123.483 217.972 127.36C215.036 131.12 211.689 133 207.931 133C205.112 133 202.881 131.884 201.237 129.652C199.593 127.302 198.477 124.541 197.89 121.368C197.773 120.194 197.244 119.606 196.305 119.606C195.483 119.489 194.661 120.017 193.839 121.192C191.02 125.069 188.143 128.007 185.207 130.004C182.271 132.001 178.631 133 174.286 133ZM179.042 124.893C182.095 124.893 184.913 123.836 187.497 121.721C190.081 119.489 192.194 116.551 193.839 112.909C195.483 109.267 196.305 105.155 196.305 100.573V87.7076C196.305 85.4753 195.072 84.8291 192.606 85.769C185.442 88.3538 179.864 91.9372 175.871 96.5194C171.996 100.984 170.058 106.389 170.058 112.733C170.058 120.84 173.052 124.893 179.042 124.893Z" fill="black"/>
    <path d="M236.012 133C233.311 133 230.434 132.648 227.381 131.943C224.327 131.355 219.356 128.912 217.477 127.972C215.572 127.972 218.324 127.316 218.324 125.906L217.868 106.917C217.868 104.92 218.632 103.921 220.158 103.921C221.45 103.921 222.331 104.861 222.801 106.741C224.797 115.083 227.205 120.781 230.023 123.836C232.959 126.891 236.482 128.418 240.592 128.418C243.998 128.418 246.816 127.125 249.048 124.541C251.279 121.838 252.395 118.138 252.395 113.438C252.395 108.738 251.103 104.567 248.519 100.925C245.936 97.283 241.59 93.2884 235.484 88.9413C229.377 84.8291 224.915 80.7169 222.096 76.6048C219.278 72.3752 217.868 67.7931 217.868 62.8585C217.868 56.1615 220.217 50.757 224.915 46.6449C229.612 42.5327 235.836 40.4766 243.587 40.4766C245.936 40.4766 248.226 40.7704 250.457 41.3578C252.688 41.8278 254.685 42.6502 256.446 43.8251C257.503 44.53 258.031 45.47 258.031 46.6449L258.384 66.0307C258.384 67.7931 257.679 68.6742 256.27 68.6742C255.448 68.6742 254.861 68.4392 254.508 67.9693C254.156 67.3818 253.862 66.6769 253.628 65.8545C251.279 58.2176 248.93 52.9306 246.581 49.9933C244.233 46.9386 241.356 45.4112 237.95 45.4112C234.897 45.4112 232.372 46.4686 230.375 48.5834C228.379 50.6983 227.381 53.3418 227.381 56.514C227.381 60.6262 228.614 64.2096 231.08 67.2643C233.546 70.3191 238.009 74.0788 244.468 78.5434C250.339 82.773 254.743 87.3551 257.679 92.2897C260.732 97.1068 262.259 102.394 262.259 108.151C262.259 115.67 259.852 121.721 255.037 126.303C250.222 130.768 243.88 133 236.012 133Z" fill="black"/>
    <path d="M261.311 131.414C259.902 131.414 259.197 130.768 259.197 129.475C259.197 128.3 259.843 127.595 261.135 127.36L263.601 127.008C266.067 126.656 267.652 125.951 268.357 124.893C269.179 123.836 269.59 122.073 269.59 119.606V18.6235C269.59 16.5087 269.238 15.0988 268.533 14.3939C267.946 13.5714 266.83 13.0427 265.186 12.8077L261.487 12.279C260.195 12.0441 259.549 11.3391 259.549 10.1642C259.549 8.98932 260.195 8.28438 261.487 8.04939C264.775 7.34445 267.535 6.52202 269.766 5.5821C271.998 4.64218 273.877 3.70226 275.403 2.76235C277.282 1.58745 278.691 1 279.631 1C280.923 1 281.569 1.93992 281.569 3.81975V77.6622C281.569 78.8371 282.038 79.6008 282.978 79.9533C284.035 80.1882 285.033 79.777 285.972 78.7196L306.582 56.514C309.049 53.8117 310.047 51.5794 309.577 49.8171C309.225 47.9372 307.874 46.7623 305.525 46.2924L301.474 45.5874C299.947 45.235 299.184 44.4713 299.184 43.2964C299.184 42.1215 300.006 41.534 301.65 41.534H331.948C333.593 41.534 334.415 42.1802 334.415 43.4726C334.415 44.765 333.651 45.47 332.125 45.5874L330.539 45.7637C327.838 45.9987 325.137 47.0561 322.436 48.9359C319.735 50.6983 316.506 53.518 312.748 57.3952L301.826 69.0267C299.36 71.729 298.773 74.3725 300.065 76.9573L322.26 119.606C323.552 121.956 324.961 123.66 326.488 124.717C328.014 125.774 329.893 126.538 332.125 127.008L333.886 127.36C335.295 127.713 336 128.418 336 129.475C336 130.768 335.178 131.414 333.534 131.414H302.883C301.239 131.414 300.417 130.768 300.417 129.475C300.417 128.3 301.18 127.595 302.707 127.36L305.702 127.008C310.164 126.421 311.104 123.542 308.52 118.372L291.785 85.769C291.198 84.5941 290.318 83.9479 289.143 83.8304C288.086 83.7129 287.088 84.1242 286.149 85.0641L284.211 87.0027C283.154 88.0601 282.449 89.1175 282.097 90.1749C281.745 91.2323 281.569 92.4072 281.569 93.6996V119.606C281.569 122.073 281.921 123.836 282.625 124.893C283.448 125.951 285.092 126.597 287.558 126.832L292.314 127.36C293.606 127.595 294.252 128.3 294.252 129.475C294.252 130.768 293.547 131.414 292.138 131.414H261.311Z" fill="black"/>
    <path d="M19.1438 133C16.4428 133 13.5656 132.648 10.5123 131.943C7.45896 131.355 4.99281 130.591 3.11384 129.652C2.05692 129.064 1.52846 128.065 1.52846 126.656L1 106.917C1 104.92 1.76333 103.921 3.29 103.921C4.58179 103.921 5.46256 104.861 5.9323 106.741C7.92871 115.083 10.3361 120.781 13.1546 123.836C16.0905 126.891 19.6136 128.418 23.7238 128.418C27.1294 128.418 29.9479 127.125 32.1792 124.541C34.4105 121.838 35.5261 118.138 35.5261 113.438C35.5261 108.738 34.2343 104.567 31.6507 100.925C29.0671 97.283 24.722 93.2884 18.6154 88.9413C12.5087 84.8291 8.04614 80.7169 5.22769 76.6048C2.40923 72.3752 1 67.7931 1 62.8585C1 56.1615 3.34871 50.757 8.04614 46.6449C12.7436 42.5327 18.9677 40.4766 26.7184 40.4766C29.0671 40.4766 31.3571 40.7704 33.5884 41.3578C35.8197 41.8278 37.8161 42.6502 39.5776 43.8251C40.6346 44.53 41.163 45.47 41.163 46.6449L41.5153 66.0307C41.5153 67.7931 40.8107 68.6742 39.4015 68.6742C38.5794 68.6742 37.9922 68.4392 37.6399 67.9693C37.2876 67.3818 36.994 66.6769 36.7592 65.8545C34.4105 58.2176 32.0617 52.9306 29.713 49.9933C27.3643 46.9386 24.4871 45.4112 21.0815 45.4112C18.0282 45.4112 15.5033 46.4686 13.5069 48.5834C11.5105 50.6983 10.5123 53.3418 10.5123 56.514C10.5123 60.6262 11.7454 64.2096 14.2115 67.2643C16.6777 70.3191 21.1402 74.0788 27.5992 78.5434C33.471 82.773 37.8748 87.3551 40.8107 92.2897C43.864 97.1068 45.3907 102.394 45.3907 108.151C45.3907 115.67 42.9833 121.721 38.1684 126.303C33.3535 130.768 27.012 133 19.1438 133Z" stroke="black" stroke-width="2" mask="url(#path-1-outside-1_64_5)"/>
    <path d="M44.971 131.414C43.2094 131.414 42.3287 130.768 42.3287 129.475C42.3287 128.418 43.092 127.713 44.6186 127.36L46.7325 127.008C49.1986 126.538 50.784 125.833 51.4886 124.893C52.3107 123.836 52.7217 122.073 52.7217 119.606V60.3912C52.7217 58.2764 52.3694 56.8665 51.6648 56.1615C51.0776 55.3391 49.962 54.8104 48.3179 54.5754L44.6186 54.0467C43.092 53.9292 42.3287 53.283 42.3287 52.1081C42.3287 51.1682 43.2681 50.522 45.1471 50.1696C48.7876 49.5821 51.5474 48.6422 53.4263 47.3498C55.4227 46.0574 57.4779 44.4713 59.5917 42.5915C60.6486 41.534 61.5294 41.0053 62.234 41.0053C63.2909 41.0053 63.8194 41.7103 63.8194 43.1202V51.0507C63.8194 51.8732 64.1717 52.5194 64.8763 52.9893C65.5809 53.3418 66.3442 53.1068 67.1663 52.2844C71.9812 47.7023 76.1501 44.5888 79.6732 42.9439C83.3137 41.2991 86.9542 40.4766 90.5947 40.4766C94.0004 40.4766 96.995 41.4166 99.5785 43.2964C102.28 45.0587 104.276 47.761 105.568 51.4032C105.92 52.3431 106.507 52.9306 107.329 53.1655C108.269 53.283 109.15 52.9306 109.972 52.1081C114.786 47.6435 118.955 44.5888 122.479 42.9439C126.002 41.2991 129.583 40.4766 133.224 40.4766C138.156 40.4766 142.149 42.3565 145.202 46.1161C148.373 49.7583 149.958 55.1629 149.958 62.3298V119.606C149.958 122.073 150.311 123.836 151.015 124.893C151.837 125.833 153.482 126.479 155.948 126.832L159.823 127.36C161.115 127.595 161.761 128.3 161.761 129.475C161.761 130.768 161.056 131.414 159.647 131.414H129.525C127.881 131.414 127.059 130.768 127.059 129.475C127.059 128.3 127.704 127.595 128.996 127.36L131.462 127.008C134.163 126.656 135.925 125.951 136.747 124.893C137.569 123.836 137.98 122.073 137.98 119.606V64.2684C137.98 58.5113 136.923 54.4579 134.809 52.1081C132.813 49.7583 130.053 48.5834 126.53 48.5834C123.007 48.5834 119.777 49.6996 116.842 51.9319C114.023 54.0467 111.733 56.9252 109.972 60.5674C108.21 64.0921 107.329 68.028 107.329 72.3752V119.606C107.329 122.073 107.74 123.836 108.562 124.893C109.384 125.833 111.087 126.479 113.671 126.832L117.546 127.36C118.838 127.595 119.484 128.3 119.484 129.475C119.484 130.768 118.779 131.414 117.37 131.414H87.424C85.7799 131.414 84.9578 130.768 84.9578 129.475C84.9578 128.3 85.6037 127.595 86.8955 127.36L89.3616 127.008C91.8278 126.656 93.4132 125.951 94.1178 124.893C94.9398 123.836 95.3509 122.073 95.3509 119.606V64.2684C95.3509 58.5113 94.2939 54.4579 92.1801 52.1081C90.1837 49.7583 87.424 48.5834 83.9009 48.5834C80.3778 48.5834 77.1483 49.6996 74.2124 51.9319C71.394 54.0467 69.104 56.9252 67.3425 60.5674C65.5809 64.0921 64.7001 68.028 64.7001 72.3752V119.606C64.7001 122.073 65.0525 123.836 65.7571 124.893C66.5791 125.951 68.2232 126.597 70.6894 126.832L75.4455 127.36C76.7373 127.595 77.3832 128.242 77.3832 129.299C77.3832 130.709 76.5024 131.414 74.7409 131.414H44.971Z" stroke="black" stroke-width="2" mask="url(#path-1-outside-1_64_5)"/>
    <path d="M174.286 133C169.353 133 165.302 131.473 162.131 128.418C158.96 125.246 157.375 121.075 157.375 115.905C157.375 110.853 158.96 106.095 162.131 101.63C165.302 97.0481 169.647 92.9359 175.166 89.2937C180.686 85.6515 186.969 82.7143 194.015 80.482C195.541 80.012 196.305 79.0133 196.305 77.486V61.4486C196.305 55.8091 195.424 51.8144 193.662 49.4646C191.901 46.9973 189.493 45.7637 186.44 45.7637C183.504 45.7637 180.803 47.1148 178.337 49.8171C175.988 52.4019 174.286 56.8077 173.229 63.0347C172.641 66.7944 171.35 69.5554 169.353 71.3178C167.474 72.9626 165.537 73.785 163.54 73.785C160.252 73.785 158.608 72.1402 158.608 68.8505C158.608 65.4433 159.547 62.0948 161.426 58.8051C163.423 55.3979 166.006 52.3431 169.177 49.6409C172.348 46.8211 175.812 44.5888 179.57 42.9439C183.328 41.2991 187.086 40.4766 190.844 40.4766C202.47 40.4766 208.283 47.2323 208.283 60.7437V114.672C208.283 119.606 209.516 122.073 211.982 122.073C213.509 122.073 214.918 121.075 216.21 119.077C217.502 116.963 218.148 113.438 218.148 108.503C218.148 106.623 218.911 105.684 220.438 105.684C221.847 105.684 222.552 106.682 222.552 108.68C222.552 117.256 221.025 123.483 217.972 127.36C215.036 131.12 211.689 133 207.931 133C205.112 133 202.881 131.884 201.237 129.652C199.593 127.302 198.477 124.541 197.89 121.368C197.773 120.194 197.244 119.606 196.305 119.606C195.483 119.489 194.661 120.017 193.839 121.192C191.02 125.069 188.143 128.007 185.207 130.004C182.271 132.001 178.631 133 174.286 133ZM179.042 124.893C182.095 124.893 184.913 123.836 187.497 121.721C190.081 119.489 192.194 116.551 193.839 112.909C195.483 109.267 196.305 105.155 196.305 100.573V87.7076C196.305 85.4753 195.072 84.8291 192.606 85.769C185.442 88.3538 179.864 91.9372 175.871 96.5194C171.996 100.984 170.058 106.389 170.058 112.733C170.058 120.84 173.052 124.893 179.042 124.893Z" stroke="black" stroke-width="2" mask="url(#path-1-outside-1_64_5)"/>
    <path d="M236.012 133C233.311 133 230.434 132.648 227.381 131.943C224.327 131.355 219.356 128.912 217.477 127.972C215.572 127.972 218.324 127.316 218.324 125.906L217.868 106.917C217.868 104.92 218.632 103.921 220.158 103.921C221.45 103.921 222.331 104.861 222.801 106.741C224.797 115.083 227.205 120.781 230.023 123.836C232.959 126.891 236.482 128.418 240.592 128.418C243.998 128.418 246.816 127.125 249.048 124.541C251.279 121.838 252.395 118.138 252.395 113.438C252.395 108.738 251.103 104.567 248.519 100.925C245.936 97.283 241.59 93.2884 235.484 88.9413C229.377 84.8291 224.915 80.7169 222.096 76.6048C219.278 72.3752 217.868 67.7931 217.868 62.8585C217.868 56.1615 220.217 50.757 224.915 46.6449C229.612 42.5327 235.836 40.4766 243.587 40.4766C245.936 40.4766 248.226 40.7704 250.457 41.3578C252.688 41.8278 254.685 42.6502 256.446 43.8251C257.503 44.53 258.031 45.47 258.031 46.6449L258.384 66.0307C258.384 67.7931 257.679 68.6742 256.27 68.6742C255.448 68.6742 254.861 68.4392 254.508 67.9693C254.156 67.3818 253.862 66.6769 253.628 65.8545C251.279 58.2176 248.93 52.9306 246.581 49.9933C244.233 46.9386 241.356 45.4112 237.95 45.4112C234.897 45.4112 232.372 46.4686 230.375 48.5834C228.379 50.6983 227.381 53.3418 227.381 56.514C227.381 60.6262 228.614 64.2096 231.08 67.2643C233.546 70.3191 238.009 74.0788 244.468 78.5434C250.339 82.773 254.743 87.3551 257.679 92.2897C260.732 97.1068 262.259 102.394 262.259 108.151C262.259 115.67 259.852 121.721 255.037 126.303C250.222 130.768 243.88 133 236.012 133Z" stroke="black" stroke-width="2" mask="url(#path-1-outside-1_64_5)"/>
    <path d="M261.311 131.414C259.902 131.414 259.197 130.768 259.197 129.475C259.197 128.3 259.843 127.595 261.135 127.36L263.601 127.008C266.067 126.656 267.652 125.951 268.357 124.893C269.179 123.836 269.59 122.073 269.59 119.606V18.6235C269.59 16.5087 269.238 15.0988 268.533 14.3939C267.946 13.5714 266.83 13.0427 265.186 12.8077L261.487 12.279C260.195 12.0441 259.549 11.3391 259.549 10.1642C259.549 8.98932 260.195 8.28438 261.487 8.04939C264.775 7.34445 267.535 6.52202 269.766 5.5821C271.998 4.64218 273.877 3.70226 275.403 2.76235C277.282 1.58745 278.691 1 279.631 1C280.923 1 281.569 1.93992 281.569 3.81975V77.6622C281.569 78.8371 282.038 79.6008 282.978 79.9533C284.035 80.1882 285.033 79.777 285.972 78.7196L306.582 56.514C309.049 53.8117 310.047 51.5794 309.577 49.8171C309.225 47.9372 307.874 46.7623 305.525 46.2924L301.474 45.5874C299.947 45.235 299.184 44.4713 299.184 43.2964C299.184 42.1215 300.006 41.534 301.65 41.534H331.948C333.593 41.534 334.415 42.1802 334.415 43.4726C334.415 44.765 333.651 45.47 332.125 45.5874L330.539 45.7637C327.838 45.9987 325.137 47.0561 322.436 48.9359C319.735 50.6983 316.506 53.518 312.748 57.3952L301.826 69.0267C299.36 71.729 298.773 74.3725 300.065 76.9573L322.26 119.606C323.552 121.956 324.961 123.66 326.488 124.717C328.014 125.774 329.893 126.538 332.125 127.008L333.886 127.36C335.295 127.713 336 128.418 336 129.475C336 130.768 335.178 131.414 333.534 131.414H302.883C301.239 131.414 300.417 130.768 300.417 129.475C300.417 128.3 301.18 127.595 302.707 127.36L305.702 127.008C310.164 126.421 311.104 123.542 308.52 118.372L291.785 85.769C291.198 84.5941 290.318 83.9479 289.143 83.8304C288.086 83.7129 287.088 84.1242 286.149 85.0641L284.211 87.0027C283.154 88.0601 282.449 89.1175 282.097 90.1749C281.745 91.2323 281.569 92.4072 281.569 93.6996V119.606C281.569 122.073 281.921 123.836 282.625 124.893C283.448 125.951 285.092 126.597 287.558 126.832L292.314 127.36C293.606 127.595 294.252 128.3 294.252 129.475C294.252 130.768 293.547 131.414 292.138 131.414H261.311Z" stroke="black" stroke-width="2" mask="url(#path-1-outside-1_64_5)"/>
</svg>
